<svg width="48" height="48" viewBox="0 0 48 48" fill="none" xmlns="http://www.w3.org/2000/svg">
<path d="M5.99988 4.59375C5.22323 4.59375 4.59363 5.22335 4.59363 6C4.59363 6.77665 5.22323 7.40625 5.99988 7.40625L5.99988 4.59375ZM10.9999 6L12.3641 5.65893C12.2076 5.03292 11.6452 4.59375 10.9999 4.59375L10.9999 6ZM37.9999 33.4062C38.7765 33.4062 39.4061 32.7766 39.4061 32C39.4061 31.2233 38.7765 30.5937 37.9999 30.5937V33.4062ZM41.9999 10L43.3641 10.3411C43.4692 9.92096 43.3748 9.4759 43.1083 9.13458C42.8418 8.79326 42.4329 8.59375 41.9999 8.59375V10ZM37.9999 26V27.4062C38.6452 27.4062 39.2076 26.9671 39.3641 26.3411L37.9999 26ZM5.99988 7.40625L10.9999 7.40625L10.9999 4.59375L5.99988 4.59375L5.99988 7.40625ZM9.63561 6.34107L10.6356 10.3411L13.3641 9.65893L12.3641 5.65893L9.63561 6.34107ZM10.6356 10.3411L14.6356 26.3411L17.3641 25.6589L13.3641 9.65893L10.6356 10.3411ZM15.9999 24.5937H14.9999V27.4062H15.9999V24.5937ZM14.9999 33.4062H37.9999V30.5937H14.9999V33.4062ZM10.5936 29C10.5936 31.4335 12.5664 33.4062 14.9999 33.4062V30.5937C14.1197 30.5937 13.4061 29.8802 13.4061 29H10.5936ZM14.9999 24.5937C12.5664 24.5937 10.5936 26.5665 10.5936 29H13.4061C13.4061 28.1198 14.1197 27.4062 14.9999 27.4062V24.5937ZM11.9999 11.4062H41.9999V8.59375H11.9999V11.4062ZM40.6356 9.65893L36.6356 25.6589L39.3641 26.3411L43.3641 10.3411L40.6356 9.65893ZM37.9999 24.5937H15.9999V27.4062H37.9999V24.5937ZM36.5936 40C36.5936 40.3279 36.3278 40.5937 35.9999 40.5937V43.4062C37.8811 43.4062 39.4061 41.8812 39.4061 40H36.5936ZM35.9999 40.5937C35.672 40.5937 35.4061 40.3279 35.4061 40H32.5936C32.5936 41.8812 34.1187 43.4062 35.9999 43.4062V40.5937ZM35.4061 40C35.4061 39.6721 35.672 39.4062 35.9999 39.4062V36.5937C34.1187 36.5937 32.5936 38.1188 32.5936 40H35.4061ZM35.9999 39.4062C36.3278 39.4062 36.5936 39.6721 36.5936 40H39.4061C39.4061 38.1188 37.8811 36.5937 35.9999 36.5937V39.4062ZM16.5936 40C16.5936 40.3279 16.3278 40.5937 15.9999 40.5937V43.4062C17.8811 43.4062 19.4061 41.8812 19.4061 40H16.5936ZM15.9999 40.5937C15.672 40.5937 15.4061 40.3279 15.4061 40H12.5936C12.5936 41.8812 14.1187 43.4062 15.9999 43.4062V40.5937ZM15.4061 40C15.4061 39.6721 15.672 39.4062 15.9999 39.4062V36.5937C14.1187 36.5937 12.5936 38.1188 12.5936 40H15.4061ZM15.9999 39.4062C16.3278 39.4062 16.5936 39.6721 16.5936 40H19.4061C19.4061 38.1188 17.8811 36.5937 15.9999 36.5937V39.4062Z" fill="black"/>
</svg>
