<svg width="40" height="40" viewBox="0 0 40 40" fill="none" xmlns="http://www.w3.org/2000/svg">
<circle cx="20" cy="20" r="20" fill="#F2F2F2"/>
<g clip-path="url(#clip0_106_1827)">
<path d="M26.1262 22.2689C24.458 22.2689 23.101 23.626 23.101 25.2941C23.101 26.9622 24.458 28.3193 26.1262 28.3193C27.7946 28.3193 29.1514 26.9622 29.1514 25.2941C29.1514 23.626 27.7943 22.2689 26.1262 22.2689ZM26.1262 26.8067C25.292 26.8067 24.6136 26.1283 24.6136 25.2941C24.6136 24.4599 25.292 23.7815 26.1262 23.7815C26.9604 23.7815 27.6388 24.4599 27.6388 25.2941C27.6388 26.1283 26.9604 26.8067 26.1262 26.8067Z" fill="#110900"/>
<path d="M15.7899 22.2689C14.1218 22.2689 12.7647 23.626 12.7647 25.2941C12.7647 26.9622 14.1218 28.3193 15.7899 28.3193C17.4581 28.3193 18.8151 26.9622 18.8151 25.2941C18.8151 23.626 17.4581 22.2689 15.7899 22.2689ZM15.7899 26.8067C14.9557 26.8067 14.2773 26.1283 14.2773 25.2941C14.2773 24.4599 14.9557 23.7815 15.7899 23.7815C16.6239 23.7815 17.3025 24.4599 17.3025 25.2941C17.3025 26.1283 16.6241 26.8067 15.7899 26.8067Z" fill="#110900"/>
<path d="M28.1634 13.6098C28.0348 13.3544 27.7734 13.1933 27.4875 13.1933H23.5043V14.7059H27.0211L29.0805 18.802L30.4323 18.1224L28.1634 13.6098Z" fill="#110900"/>
<path d="M23.857 24.563H18.1343V26.0757H23.857V24.563Z" fill="#110900"/>
<path d="M13.5212 24.563H10.8993C10.4816 24.563 10.1431 24.9016 10.1431 25.3193C10.1431 25.7371 10.4816 26.0756 10.8993 26.0756H13.5212C13.939 26.0756 14.2775 25.737 14.2775 25.3193C14.2775 24.9016 13.9389 24.563 13.5212 24.563Z" fill="#110900"/>
<path d="M31.8414 19.9395L30.3537 18.0235C30.2108 17.839 29.9902 17.7311 29.7565 17.7311H24.2607V12.4369C24.2607 12.0192 23.9221 11.6807 23.5044 11.6807H10.8993C10.4816 11.6807 10.1431 12.0192 10.1431 12.4369C10.1431 12.8546 10.4816 13.1932 10.8993 13.1932H22.7481V18.4873C22.7481 18.9051 23.0867 19.2436 23.5044 19.2436H29.3861L30.4876 20.6624V24.5629H28.3951C27.9774 24.5629 27.6388 24.9015 27.6388 25.3192C27.6388 25.737 27.9774 26.0755 28.3951 26.0755H31.2438C31.6616 26.0755 32.0001 25.7369 32.0002 25.3192V20.4034C32.0002 20.2354 31.9442 20.0721 31.8414 19.9395Z" fill="#110900"/>
<path d="M13.4706 20.7311H9.99157C9.57382 20.7311 9.23529 21.0697 9.23529 21.4874C9.23529 21.9051 9.57387 22.2437 9.99157 22.2437H13.4705C13.8883 22.2437 14.2268 21.9051 14.2268 21.4874C14.2269 21.0697 13.8883 20.7311 13.4706 20.7311Z" fill="#110900"/>
<path d="M15.2101 17.7563H8.75628C8.33858 17.7563 8 18.0948 8 18.5126C8 18.9303 8.33858 19.2689 8.75628 19.2689H15.2101C15.6278 19.2689 15.9664 18.9303 15.9664 18.5126C15.9664 18.0949 15.6278 17.7563 15.2101 17.7563Z" fill="#110900"/>
<path d="M16.4454 14.7815H9.99157C9.57382 14.7815 9.23529 15.1201 9.23529 15.5378C9.23529 15.9555 9.57387 16.2941 9.99157 16.2941H16.4454C16.8631 16.2941 17.2017 15.9555 17.2017 15.5378C17.2017 15.1201 16.8631 14.7815 16.4454 14.7815Z" fill="#110900"/>
</g>
<defs>
<clipPath id="clip0_106_1827">
<rect width="24" height="24" fill="white" transform="translate(8 8)"/>
</clipPath>
</defs>
</svg>
