<svg width="40" height="40" viewBox="0 0 40 40" fill="none" xmlns="http://www.w3.org/2000/svg">
<circle cx="20" cy="20" r="20" fill="#F2F2F2"/>
<path d="M27.8571 12.8571H12.1429C10.9594 12.8571 10 13.8165 10 15V25C10 26.1834 10.9594 27.1428 12.1429 27.1428H27.8571C29.0406 27.1428 30 26.1834 30 25V15C30 13.8165 29.0406 12.8571 27.8571 12.8571ZM28.5714 25C28.5714 25.3945 28.2516 25.7143 27.8571 25.7143H12.1429C11.7484 25.7143 11.4286 25.3945 11.4286 25V20.7143H28.5714V25ZM28.5714 19.2857H11.4286V17.8572H28.5714V19.2857ZM28.5714 16.4286H11.4286V15C11.4286 14.6055 11.7484 14.2857 12.1429 14.2857H27.8571C28.2516 14.2857 28.5714 14.6055 28.5714 15V16.4286H28.5714Z" fill="#110900"/>
<path d="M26.4284 22.1428H23.5712C23.1767 22.1428 22.8569 22.4626 22.8569 22.8571C22.8569 23.2516 23.1767 23.5714 23.5712 23.5714H26.4284C26.8229 23.5714 27.1427 23.2516 27.1427 22.8571C27.1427 22.4626 26.8229 22.1428 26.4284 22.1428Z" fill="#110900"/>
</svg>
