<svg width="40" height="40" viewBox="0 0 40 40" fill="none" xmlns="http://www.w3.org/2000/svg">
<circle cx="20" cy="20" r="20" fill="#F2F2F2"/>
<path d="M28.2671 29.1646L27.0501 15.6114C27.0169 15.2412 26.7067 14.9577 26.3351 14.9577H23.8254V13.8258C23.8254 11.7163 22.1093 10 19.9998 10C17.8905 10 16.1745 11.7163 16.1745 13.8258V14.9577H13.663C13.2915 14.9577 12.9813 15.2412 12.9481 15.6114L11.7263 29.2179C11.7083 29.4187 11.7755 29.6177 11.9115 29.7665C12.0475 29.9152 12.2398 29.9999 12.4412 29.9999H27.557C27.5576 29.9999 27.5584 29.9999 27.559 29.9999C27.9555 29.9999 28.2768 29.6785 28.2768 29.282C28.2767 29.2421 28.2735 29.2028 28.2671 29.1646ZM17.6102 13.8258C17.6102 12.5079 18.6822 11.4357 19.9999 11.4357C21.3177 11.4357 22.3898 12.5079 22.3898 13.8258V14.9577H17.6102V13.8258ZM13.2265 28.5643L14.3194 16.3934H16.1745V17.6772C16.1745 18.0736 16.4958 18.395 16.8924 18.395C17.2889 18.395 17.6102 18.0736 17.6102 17.6772V16.3934H22.3898V17.6772C22.3898 18.0736 22.7111 18.395 23.1077 18.395C23.5042 18.395 23.8255 18.0736 23.8255 17.6772V16.3934H25.6789L26.7718 28.5643H13.2265Z" fill="#110900"/>
</svg>
