<svg width="48" height="48" viewBox="0 0 48 48" fill="none" xmlns="http://www.w3.org/2000/svg">
<path fill-rule="evenodd" clip-rule="evenodd" d="M17.4062 14C17.4062 10.3584 20.3583 7.40625 24 7.40625C27.6416 7.40625 30.5937 10.3584 30.5937 14C30.5937 17.6416 27.6416 20.5937 24 20.5937C20.3583 20.5937 17.4062 17.6416 17.4062 14ZM24 4.59375C18.805 4.59375 14.5937 8.80507 14.5937 14C14.5937 19.1949 18.805 23.4062 24 23.4062C29.1949 23.4062 33.4062 19.1949 33.4062 14C33.4062 8.80507 29.1949 4.59375 24 4.59375ZM11.4063 36.6667C11.4063 33.7276 13.7202 31.4062 16.5001 31.4062H31.5001C34.2799 31.4062 36.5938 33.7276 36.5938 36.6667V38.5937H11.4063V36.6667ZM16.5001 28.5937C12.1002 28.5937 8.59381 32.2419 8.59381 36.6667V40C8.59381 40.7766 9.22341 41.4062 10.0001 41.4062H38.0001C38.7767 41.4062 39.4063 40.7766 39.4063 40V36.6667C39.4063 32.2419 35.8999 28.5937 31.5001 28.5937H16.5001Z" fill="black"/>
</svg>
