<svg width="40" height="40" viewBox="0 0 40 40" fill="none" xmlns="http://www.w3.org/2000/svg">
<circle cx="20" cy="20" r="20" fill="#F2F2F2"/>
<g clip-path="url(#clip0_106_1806)">
<path d="M28.6702 20.2591C28.5897 20.0944 28.5897 19.9056 28.6702 19.741L29.4161 18.215C29.8314 17.3654 29.5024 16.3527 28.667 15.9094L27.1666 15.1133C27.0047 15.0275 26.8937 14.8747 26.8621 14.6942L26.5686 13.0212C26.4052 12.0898 25.5436 11.4638 24.6074 11.5963L22.9256 11.8342C22.7441 11.8598 22.5646 11.8014 22.4329 11.6741L21.2122 10.4931C20.5325 9.83556 19.4676 9.83552 18.788 10.4931L17.5672 11.6742C17.4355 11.8016 17.256 11.8598 17.0745 11.8343L15.3928 11.5964C14.4562 11.4639 13.5949 12.0899 13.4315 13.0214L13.1381 14.6943C13.1064 14.8748 12.9954 15.0275 12.8336 15.1134L11.3332 15.9095C10.4978 16.3527 10.1688 17.3655 10.5841 18.2151L11.33 19.741C11.4104 19.9057 11.4104 20.0945 11.33 20.2591L10.584 21.7851C10.1687 22.6347 10.4978 23.6474 11.3332 24.0906L12.8335 24.8867C12.9954 24.9726 13.1064 25.1254 13.1381 25.3058L13.4315 26.9788C13.5803 27.8268 14.3074 28.4215 15.143 28.4214C15.2253 28.4214 15.3088 28.4156 15.3928 28.4037L17.0745 28.1658C17.2559 28.1401 17.4355 28.1986 17.5672 28.326L18.788 29.5069C19.1279 29.8357 19.5639 30.0001 20.0001 30.0001C20.4361 30 20.8724 29.8356 21.2122 29.5069L22.4329 28.326C22.5647 28.1986 22.7442 28.1404 22.9256 28.1658L24.6074 28.4037C25.544 28.5362 26.4052 27.9103 26.5686 26.9788L26.8621 25.3059C26.8938 25.1254 27.0048 24.9726 27.1666 24.8867L28.667 24.0906C29.5024 23.6474 29.8314 22.6347 29.4161 21.785L28.6702 20.2591ZM28.1263 23.0716L26.6259 23.8677C26.1476 24.1216 25.8195 24.5731 25.7259 25.1065L25.4325 26.7794C25.3772 27.0946 25.0859 27.3063 24.7689 27.2616L23.0872 27.0237C22.5509 26.9477 22.0202 27.1203 21.6309 27.4968L20.4101 28.6777C20.1802 28.9001 19.82 28.9001 19.59 28.6777L18.3692 27.4968C18.0402 27.1785 17.6102 27.0061 17.1612 27.0061C17.0789 27.0061 16.996 27.0119 16.9129 27.0236L15.2312 27.2615C14.9146 27.3063 14.623 27.0946 14.5676 26.7794L14.2742 25.1064C14.1806 24.573 13.8525 24.1215 13.3741 23.8677L11.8737 23.0716C11.5911 22.9216 11.4798 22.579 11.6203 22.2915L12.3662 20.7656C12.604 20.279 12.604 19.721 12.3662 19.2344L11.6203 17.7084C11.4798 17.421 11.5911 17.0784 11.8737 16.9284L13.3741 16.1323C13.8525 15.8785 14.1806 15.427 14.2741 14.8935L14.5676 13.2206C14.6229 12.9054 14.9142 12.6937 15.2311 12.7385L16.9129 12.9764C17.449 13.0523 17.9799 12.8797 18.3691 12.5032L19.5899 11.3223C19.8198 11.0998 20.1801 11.0998 20.4101 11.3223L21.6308 12.5032C22.0201 12.8798 22.5509 13.0523 23.0871 12.9764L24.7689 12.7385C25.0855 12.6937 25.3771 12.9054 25.4324 13.2206L25.7259 14.8936C25.8194 15.427 26.1475 15.8785 26.6259 16.1323L28.1263 16.9284C28.4089 17.0784 28.5203 17.421 28.3797 17.7084L27.6338 19.2344C27.396 19.7209 27.396 20.279 27.6338 20.7655L28.3797 22.2915C28.5203 22.579 28.409 22.9217 28.1263 23.0716Z" fill="#110900"/>
<path d="M24.2142 15.7857C23.989 15.5605 23.6238 15.5605 23.3986 15.7857L15.7857 23.3986C15.5605 23.6238 15.5605 23.989 15.7857 24.2143C15.8984 24.3269 16.046 24.3832 16.1936 24.3832C16.3411 24.3832 16.4888 24.3269 16.6014 24.2143L24.2142 16.6014C24.4395 16.3762 24.4395 16.011 24.2142 15.7857Z" fill="#110900"/>
<path d="M17.6932 14.8092C16.5271 14.8092 15.5784 15.7579 15.5784 16.924C15.5784 18.0901 16.5271 19.0388 17.6932 19.0388C18.8593 19.0388 19.808 18.0901 19.808 16.924C19.808 15.7579 18.8593 14.8092 17.6932 14.8092ZM17.6932 17.8852C17.1632 17.8852 16.7319 17.454 16.7319 16.9239C16.7319 16.3939 17.1632 15.9627 17.6932 15.9627C18.2232 15.9627 18.6545 16.3939 18.6545 16.9239C18.6544 17.454 18.2232 17.8852 17.6932 17.8852Z" fill="#110900"/>
<path d="M22.3071 20.9613C21.141 20.9613 20.1923 21.91 20.1923 23.0761C20.1923 24.2422 21.141 25.1909 22.3071 25.1909C23.4731 25.1909 24.4218 24.2422 24.4218 23.0761C24.4218 21.91 23.4731 20.9613 22.3071 20.9613ZM22.3071 24.0373C21.777 24.0373 21.3458 23.6061 21.3458 23.0761C21.3458 22.546 21.777 22.1148 22.3071 22.1148C22.8371 22.1148 23.2683 22.546 23.2683 23.0761C23.2683 23.6061 22.8371 24.0373 22.3071 24.0373Z" fill="#110900"/>
</g>
<defs>
<clipPath id="clip0_106_1806">
<rect width="20" height="20" fill="white" transform="translate(10 10)"/>
</clipPath>
</defs>
</svg>
